<mxfile host="app.diagrams.net" modified="2023-06-07T19:03:30.618Z" agent="Mozilla/5.0 (Windows NT 10.0; Win64; x64) AppleWebKit/537.36 (KHTML, like Gecko) Chrome/113.0.0.0 Safari/537.36 Edg/113.0.1774.50" etag="qxYyuYm4utZWspbhLIv4" version="21.3.7" type="github">
  <diagram id="R2lEEEUBdFMjLlhIrx00" name="Page-1">
    <mxGraphModel dx="1194" dy="766" grid="1" gridSize="10" guides="1" tooltips="1" connect="1" arrows="1" fold="1" page="1" pageScale="1" pageWidth="1100" pageHeight="850" math="0" shadow="0" extFonts="Permanent Marker^https://fonts.googleapis.com/css?family=Permanent+Marker">
      <root>
        <mxCell id="0" />
        <mxCell id="1" parent="0" />
        <mxCell id="8GuR-a8V1e1RuhHZd9S7-1" value="Server" style="swimlane;whiteSpace=wrap;html=1;" vertex="1" parent="1">
          <mxGeometry x="30" y="10" width="660" height="450" as="geometry" />
        </mxCell>
        <mxCell id="8GuR-a8V1e1RuhHZd9S7-34" value="" style="edgeStyle=orthogonalEdgeStyle;rounded=0;orthogonalLoop=1;jettySize=auto;html=1;" edge="1" parent="8GuR-a8V1e1RuhHZd9S7-1" source="8GuR-a8V1e1RuhHZd9S7-2" target="8GuR-a8V1e1RuhHZd9S7-3">
          <mxGeometry relative="1" as="geometry" />
        </mxCell>
        <mxCell id="8GuR-a8V1e1RuhHZd9S7-2" value="Database service&lt;br&gt;(e.g., mysql, sqlite)" style="whiteSpace=wrap;html=1;aspect=fixed;" vertex="1" parent="8GuR-a8V1e1RuhHZd9S7-1">
          <mxGeometry x="120" y="115" width="120" height="120" as="geometry" />
        </mxCell>
        <mxCell id="8GuR-a8V1e1RuhHZd9S7-35" value="" style="edgeStyle=orthogonalEdgeStyle;rounded=0;orthogonalLoop=1;jettySize=auto;html=1;" edge="1" parent="8GuR-a8V1e1RuhHZd9S7-1" source="8GuR-a8V1e1RuhHZd9S7-3" target="8GuR-a8V1e1RuhHZd9S7-6">
          <mxGeometry relative="1" as="geometry" />
        </mxCell>
        <mxCell id="8GuR-a8V1e1RuhHZd9S7-36" value="" style="edgeStyle=orthogonalEdgeStyle;rounded=0;orthogonalLoop=1;jettySize=auto;html=1;" edge="1" parent="8GuR-a8V1e1RuhHZd9S7-1" source="8GuR-a8V1e1RuhHZd9S7-3" target="8GuR-a8V1e1RuhHZd9S7-4">
          <mxGeometry relative="1" as="geometry" />
        </mxCell>
        <mxCell id="8GuR-a8V1e1RuhHZd9S7-3" value="Andes web application" style="whiteSpace=wrap;html=1;aspect=fixed;" vertex="1" parent="8GuR-a8V1e1RuhHZd9S7-1">
          <mxGeometry x="300" y="115" width="120" height="120" as="geometry" />
        </mxCell>
        <mxCell id="8GuR-a8V1e1RuhHZd9S7-4" value="Web service&lt;br&gt;(e.g., apache2)" style="whiteSpace=wrap;html=1;aspect=fixed;" vertex="1" parent="8GuR-a8V1e1RuhHZd9S7-1">
          <mxGeometry x="480" y="115" width="120" height="120" as="geometry" />
        </mxCell>
        <mxCell id="8GuR-a8V1e1RuhHZd9S7-5" value="Andes Celery&lt;br&gt;service" style="whiteSpace=wrap;html=1;aspect=fixed;" vertex="1" parent="8GuR-a8V1e1RuhHZd9S7-1">
          <mxGeometry x="120" y="295" width="120" height="120" as="geometry" />
        </mxCell>
        <mxCell id="8GuR-a8V1e1RuhHZd9S7-6" value="Messaging service&lt;br&gt;(e.g., redis)" style="whiteSpace=wrap;html=1;aspect=fixed;" vertex="1" parent="8GuR-a8V1e1RuhHZd9S7-1">
          <mxGeometry x="300" y="295" width="120" height="120" as="geometry" />
        </mxCell>
        <mxCell id="8GuR-a8V1e1RuhHZd9S7-7" value="Printing service&lt;br&gt;(e.g., CUPS)" style="whiteSpace=wrap;html=1;aspect=fixed;" vertex="1" parent="8GuR-a8V1e1RuhHZd9S7-1">
          <mxGeometry x="480" y="295" width="120" height="120" as="geometry" />
        </mxCell>
        <mxCell id="8GuR-a8V1e1RuhHZd9S7-29" value="" style="image;html=1;image=img/lib/clip_art/computers/Server_Tower_128x128.png" vertex="1" parent="8GuR-a8V1e1RuhHZd9S7-1">
          <mxGeometry x="10" y="35" width="80" height="80" as="geometry" />
        </mxCell>
        <mxCell id="8GuR-a8V1e1RuhHZd9S7-37" value="" style="edgeStyle=orthogonalEdgeStyle;rounded=0;orthogonalLoop=1;jettySize=auto;html=1;exitX=0.675;exitY=1.008;exitDx=0;exitDy=0;exitPerimeter=0;" edge="1" parent="8GuR-a8V1e1RuhHZd9S7-1" source="8GuR-a8V1e1RuhHZd9S7-3" target="8GuR-a8V1e1RuhHZd9S7-7">
          <mxGeometry relative="1" as="geometry">
            <mxPoint x="370" y="245" as="sourcePoint" />
            <mxPoint x="370" y="305" as="targetPoint" />
          </mxGeometry>
        </mxCell>
        <mxCell id="8GuR-a8V1e1RuhHZd9S7-8" value="Manual data input" style="shape=manualInput;whiteSpace=wrap;html=1;" vertex="1" parent="1">
          <mxGeometry x="850" y="670" width="80" height="80" as="geometry" />
        </mxCell>
        <mxCell id="8GuR-a8V1e1RuhHZd9S7-9" value="Sensor data&lt;br&gt;(e.g., sonar, scanmar)" style="shape=parallelogram;perimeter=parallelogramPerimeter;whiteSpace=wrap;html=1;fixedSize=1;" vertex="1" parent="1">
          <mxGeometry x="260" y="660" width="120" height="60" as="geometry" />
        </mxCell>
        <mxCell id="8GuR-a8V1e1RuhHZd9S7-10" value="Navigational data" style="shape=parallelogram;perimeter=parallelogramPerimeter;whiteSpace=wrap;html=1;fixedSize=1;" vertex="1" parent="1">
          <mxGeometry x="40" y="650" width="120" height="60" as="geometry" />
        </mxCell>
        <mxCell id="8GuR-a8V1e1RuhHZd9S7-11" value="Client Devices" style="swimlane;whiteSpace=wrap;html=1;" vertex="1" parent="1">
          <mxGeometry x="740" y="20" width="430" height="340" as="geometry" />
        </mxCell>
        <mxCell id="8GuR-a8V1e1RuhHZd9S7-19" value="" style="image;html=1;image=img/lib/clip_art/computers/Laptop_128x128.png" vertex="1" parent="8GuR-a8V1e1RuhHZd9S7-11">
          <mxGeometry x="40" y="40" width="80" height="80" as="geometry" />
        </mxCell>
        <mxCell id="8GuR-a8V1e1RuhHZd9S7-21" value="" style="image;html=1;image=img/lib/clip_art/computers/Fujitsu_Tablet_128x128.png" vertex="1" parent="8GuR-a8V1e1RuhHZd9S7-11">
          <mxGeometry x="180" y="50" width="80" height="80" as="geometry" />
        </mxCell>
        <mxCell id="8GuR-a8V1e1RuhHZd9S7-27" value="" style="image;html=1;image=img/lib/clip_art/telecommunication/iPhone_128x128.png" vertex="1" parent="8GuR-a8V1e1RuhHZd9S7-11">
          <mxGeometry x="230" y="190" width="80" height="80" as="geometry" />
        </mxCell>
        <mxCell id="8GuR-a8V1e1RuhHZd9S7-30" value="" style="image;html=1;image=img/lib/clip_art/computers/Workstation_128x128.png" vertex="1" parent="8GuR-a8V1e1RuhHZd9S7-11">
          <mxGeometry x="60" y="230" width="80" height="80" as="geometry" />
        </mxCell>
        <mxCell id="8GuR-a8V1e1RuhHZd9S7-31" value="" style="image;html=1;image=img/lib/clip_art/computers/Laptop_128x128.png" vertex="1" parent="8GuR-a8V1e1RuhHZd9S7-11">
          <mxGeometry x="40" y="40" width="80" height="80" as="geometry" />
        </mxCell>
        <mxCell id="8GuR-a8V1e1RuhHZd9S7-32" value="" style="image;html=1;image=img/lib/clip_art/computers/Laptop_128x128.png" vertex="1" parent="8GuR-a8V1e1RuhHZd9S7-11">
          <mxGeometry x="40" y="40" width="80" height="80" as="geometry" />
        </mxCell>
        <mxCell id="8GuR-a8V1e1RuhHZd9S7-33" value="" style="image;html=1;image=img/lib/clip_art/computers/Laptop_128x128.png" vertex="1" parent="8GuR-a8V1e1RuhHZd9S7-11">
          <mxGeometry x="40" y="40" width="80" height="80" as="geometry" />
        </mxCell>
      </root>
    </mxGraphModel>
  </diagram>
</mxfile>
